<svg id="Layer_1" data-name="Layer 1" xmlns="http://www.w3.org/2000/svg" viewBox="0 0 1862.384 694.054">
  <defs>
    <style>
      .cls-1 {
        fill: #8e8e8e;
      }

      .cls-2 {
        fill: #fff;
      }
    </style>
  </defs>
  <title>logo</title>
  <g>
    <path class="cls-1" d="M807.159,633.369l-17.252,65.08c-2.5,9.451-12.218,17.248-21.816,17.248h-12.6a3.587,3.587,0,0,1-3.525-4.8l23.893-90.128a6.914,6.914,0,0,1,6.07-4.8h12.6C804.126,615.969,809.7,623.769,807.159,633.369Zm-9.595,0c1.15-4.352-1.386-7.8-5.582-7.8h-7.8L762.836,706.1h7.8a10.7,10.7,0,0,0,9.674-7.648Z" transform="translate(-28.808 -157.798)"/>
    <path class="cls-1" d="M808.022,713.3a3.3,3.3,0,0,1-3.039,2.4h-4.8a1.766,1.766,0,0,1-1.761-2.4l25.127-94.776.035-.152a3.462,3.462,0,0,1,3.039-2.4h4.795a1.823,1.823,0,0,1,1.764,2.4Z" transform="translate(-28.808 -157.798)"/>
    <path class="cls-1" d="M865.243,638.315l1.351-5.1c1.112-4.2-1.424-7.648-5.623-7.648a10.706,10.706,0,0,0-9.673,7.648L834,698.449c-1.115,4.2,1.421,7.648,5.62,7.648a10.712,10.712,0,0,0,9.677-7.648l7.431-28.042h-5.248a1.762,1.762,0,0,1-1.761-2.4l1.269-4.794a3.292,3.292,0,0,1,3.037-2.4h12.448a1.765,1.765,0,0,1,1.761,2.4L858.9,698.449c-2.5,9.451-12.37,17.248-21.82,17.248s-15.177-7.8-12.672-17.248l17.29-65.23c2.507-9.451,12.373-17.25,21.82-17.25s15.177,7.8,12.672,17.25l-1.351,5.1a3.294,3.294,0,0,1-3.034,2.4h-4.8A1.766,1.766,0,0,1,865.243,638.315Z" transform="translate(-28.808 -157.798)"/>
    <path class="cls-1" d="M877.008,713.3a3.3,3.3,0,0,1-3.037,2.4h-4.8a1.768,1.768,0,0,1-1.764-2.4l25.127-94.776.041-.152a3.449,3.449,0,0,1,3.034-2.4h4.8a1.821,1.821,0,0,1,1.761,2.4Z" transform="translate(-28.808 -157.798)"/>
    <path class="cls-1" d="M941.009,618.369l-1.27,4.8a3.3,3.3,0,0,1-3.036,2.4h-6.744L906.7,713.3a3.306,3.306,0,0,1-3.041,2.4h-4.8a1.766,1.766,0,0,1-1.761-2.4l23.254-87.726H913.61a1.769,1.769,0,0,1-1.764-2.4l1.272-4.8a3.458,3.458,0,0,1,3.037-2.4h23.093A1.823,1.823,0,0,1,941.009,618.369Z" transform="translate(-28.808 -157.798)"/>
    <path class="cls-1" d="M978.128,633.369,956.938,713.3a3.3,3.3,0,0,1-3.033,2.4h-4.8a1.767,1.767,0,0,1-1.763-2.4l11.331-42.739H943.226L931.9,713.3a3.3,3.3,0,0,1-3.04,2.4h-4.8a1.824,1.824,0,0,1-1.761-2.4l21.19-79.928c2.542-9.6,12.411-17.4,22.006-17.4C974.943,615.969,980.67,623.769,978.128,633.369Zm-9.6,0c1.15-4.352-1.383-7.8-5.582-7.8a10.77,10.77,0,0,0-9.862,7.8l-7.318,27.589h15.444Z" transform="translate(-28.808 -157.798)"/>
    <path class="cls-1" d="M995.557,708.5l-1.273,4.8a3.3,3.3,0,0,1-3.034,2.4h-17.7c-2.7,0-4.241-2.1-3.525-4.8l24.525-92.528a3.465,3.465,0,0,1,3.04-2.4h4.795a1.894,1.894,0,0,1,1.767,2.4L980.9,706.1h12.9A1.825,1.825,0,0,1,995.557,708.5Z" transform="translate(-28.808 -157.798)"/>
    <path class="cls-1" d="M1107.706,633.369l-21.19,79.928a3.452,3.452,0,0,1-3.037,2.4h-4.8a1.763,1.763,0,0,1-1.758-2.4l21.187-79.928c1.153-4.352-1.383-7.8-5.73-7.8-4.2,0-8.566,3.445-9.718,7.8L1061.474,713.3a3.305,3.305,0,0,1-3.041,2.4h-4.8a1.765,1.765,0,0,1-1.761-2.4l21.187-79.928c1.153-4.352-1.383-7.8-5.579-7.8a10.779,10.779,0,0,0-9.866,7.8l-21.19,79.928a3.291,3.291,0,0,1-3.036,2.4h-4.8a1.827,1.827,0,0,1-1.764-2.4l21.193-79.928c2.542-9.6,12.408-17.4,22.006-17.4a13.041,13.041,0,0,1,11.012,5.4,22.645,22.645,0,0,1,13.883-5.4C1104.521,615.969,1110.251,623.769,1107.706,633.369Z" transform="translate(-28.808 -157.798)"/>
    <path class="cls-1" d="M1154.8,633.369,1133.612,713.3a3.3,3.3,0,0,1-3.036,2.4h-4.8a1.768,1.768,0,0,1-1.768-2.4l11.334-42.739H1119.9l-11.33,42.739a3.3,3.3,0,0,1-3.037,2.4h-4.8a1.827,1.827,0,0,1-1.764-2.4l21.193-79.928c2.542-9.6,12.408-17.4,22.006-17.4C1151.613,615.969,1157.343,623.769,1154.8,633.369Zm-9.6,0c1.153-4.352-1.383-7.8-5.579-7.8a10.777,10.777,0,0,0-9.865,7.8l-7.318,27.589h15.448Z" transform="translate(-28.808 -157.798)"/>
    <path class="cls-1" d="M1195.7,653.31a23.339,23.339,0,0,1-8.549,12.448c2.464,3.15,3.22,7.648,1.909,12.6L1179.8,713.3a3.294,3.294,0,0,1-3.034,2.4h-4.8a1.766,1.766,0,0,1-1.761-2.4l9.264-34.939c1.147-4.354-1.386-7.8-5.582-7.8h-7.651L1154.905,713.3a3.453,3.453,0,0,1-3.034,2.4h-4.8a1.766,1.766,0,0,1-1.764-2.4l24.528-92.528a6.749,6.749,0,0,1,6.07-4.8h12.449c9.595,0,15.173,7.8,12.631,17.4Zm-4.312-19.941c1.153-4.352-1.379-7.8-5.578-7.8h-7.652l-9.38,35.387h7.648a10.718,10.718,0,0,0,9.676-7.648Z" transform="translate(-28.808 -157.798)"/>
    <path class="cls-1" d="M1242.8,653.31a23.6,23.6,0,0,1-8.7,12.448c2.464,3.15,3.368,7.648,2.057,12.6l-9.261,34.939a3.457,3.457,0,0,1-3.037,2.4h-4.8a1.766,1.766,0,0,1-1.761-2.4l9.264-34.939c1.15-4.354-1.383-7.8-5.732-7.8h-7.648L1201.852,713.3a3.3,3.3,0,0,1-3.04,2.4h-4.8a1.766,1.766,0,0,1-1.764-2.4l11.33-42.739,2.545-9.6,11.252-42.437.038-.152a3.456,3.456,0,0,1,3.037-2.4h4.8a1.824,1.824,0,0,1,1.764,2.4l-11.289,42.589h7.645a10.744,10.744,0,0,0,9.827-7.648l9.262-34.941a3.467,3.467,0,0,1,3.04-2.4h4.8a1.89,1.89,0,0,1,1.761,2.4Z" transform="translate(-28.808 -157.798)"/>
    <path class="cls-1" d="M1272.2,625.571l-9.421,35.537h13.044a1.767,1.767,0,0,1,1.764,2.4l-1.272,4.8a3.451,3.451,0,0,1-3.037,2.393h-13.044l-9.384,35.394h13.047a1.826,1.826,0,0,1,1.764,2.4l-1.273,4.8a3.3,3.3,0,0,1-3.036,2.4h-17.842c-2.7,0-4.242-2.1-3.528-4.8l23.893-90.128a6.753,6.753,0,0,1,6.073-4.8h17.845a1.821,1.821,0,0,1,1.757,2.4l-1.272,4.8a3.289,3.289,0,0,1-3.03,2.4Z" transform="translate(-28.808 -157.798)"/>
    <path class="cls-1" d="M1328.394,618.369l-1.272,4.8a3.292,3.292,0,0,1-3.03,2.4h-6.751L1294.084,713.3a3.3,3.3,0,0,1-3.037,2.4h-4.8a1.765,1.765,0,0,1-1.761-2.4l23.256-87.726H1301a1.767,1.767,0,0,1-1.764-2.4l1.272-4.8a3.464,3.464,0,0,1,3.037-2.4h23.1A1.821,1.821,0,0,1,1328.394,618.369Z" transform="translate(-28.808 -157.798)"/>
    <path class="cls-1" d="M1321.53,713.3a3.3,3.3,0,0,1-3.04,2.4h-4.8a1.764,1.764,0,0,1-1.761-2.4l25.124-94.776.038-.152a3.455,3.455,0,0,1,3.036-2.4h4.8a1.824,1.824,0,0,1,1.764,2.4Z" transform="translate(-28.808 -157.798)"/>
    <path class="cls-1" d="M1389.806,633.369,1368.619,713.3a3.3,3.3,0,0,1-3.04,2.4h-4.794a1.768,1.768,0,0,1-1.767-2.4l21.19-79.928c1.153-4.352-1.383-7.8-5.579-7.8a10.777,10.777,0,0,0-9.865,7.8l-21.19,79.928a3.3,3.3,0,0,1-3.037,2.4h-4.8a1.764,1.764,0,0,1-1.761-2.4l21.189-79.928c2.542-9.6,12.408-17.4,22.006-17.4C1386.621,615.969,1392.351,623.769,1389.806,633.369Z" transform="translate(-28.808 -157.798)"/>
    <path class="cls-1" d="M1425.841,638.315l1.352-5.1c1.112-4.2-1.424-7.648-5.62-7.648a10.713,10.713,0,0,0-9.679,7.648l-17.291,65.23c-1.112,4.2,1.421,7.648,5.623,7.648a10.7,10.7,0,0,0,9.671-7.648l7.435-28.042h-5.248a1.765,1.765,0,0,1-1.762-2.4l1.27-4.794a3.294,3.294,0,0,1,3.037-2.4h12.448a1.768,1.768,0,0,1,1.764,2.4l-9.343,35.237c-2.507,9.451-12.373,17.248-21.816,17.248s-15.177-7.8-12.676-17.248l17.293-65.23c2.5-9.451,12.37-17.25,21.82-17.25s15.177,7.8,12.669,17.25l-1.351,5.1a3.294,3.294,0,0,1-3.034,2.4h-4.8A1.766,1.766,0,0,1,1425.841,638.315Z" transform="translate(-28.808 -157.798)"/>
    <path class="cls-1" d="M1492.88,638.315l1.351-5.1c1.112-4.2-1.42-7.648-5.623-7.648a10.7,10.7,0,0,0-9.673,7.648l-2.025,7.648c-.479,1.8-.479,1.8-.227,2.544l11.494,38.091c1.5,5.1,1.5,5.1.347,9.448l-1.988,7.5c-2.545,9.6-12.37,17.248-21.82,17.248s-15.217-7.648-12.672-17.248l1.352-5.1a3.46,3.46,0,0,1,3.033-2.4h4.8a1.827,1.827,0,0,1,1.764,2.4l-1.351,5.1c-1.154,4.347,1.379,7.8,5.578,7.8s8.565-3.453,9.718-7.8l1.988-7.5c.434-1.651.434-1.651.186-2.4l-11.494-38.089c-1.5-5.1-1.5-5.1-.306-9.595l2.026-7.648c2.5-9.451,12.37-17.25,21.816-17.25s15.18,7.8,12.672,17.25l-1.351,5.1a3.294,3.294,0,0,1-3.034,2.4h-4.8A1.766,1.766,0,0,1,1492.88,638.315Z" transform="translate(-28.808 -157.798)"/>
    <path class="cls-1" d="M1549.378,633.369l-17.253,65.08c-2.544,9.6-12.372,17.248-21.816,17.248-9.6,0-15.369-7.648-12.824-17.248l17.253-65.08c2.544-9.6,12.41-17.4,22-17.4C1546.194,615.969,1551.923,623.769,1549.378,633.369Zm-9.6,0c1.154-4.352-1.379-7.8-5.578-7.8a10.781,10.781,0,0,0-9.866,7.8l-17.252,65.08c-1.112,4.2,1.42,7.648,5.771,7.648a10.706,10.706,0,0,0,9.673-7.648Z" transform="translate(-28.808 -157.798)"/>
    <path class="cls-1" d="M1566.81,708.5l-1.276,4.8a3.293,3.293,0,0,1-3.033,2.4h-17.7c-2.7,0-4.239-2.1-3.528-4.8l24.529-92.528a3.455,3.455,0,0,1,3.036-2.4h4.8a1.892,1.892,0,0,1,1.764,2.4L1552.146,706.1h12.9A1.827,1.827,0,0,1,1566.81,708.5Z" transform="translate(-28.808 -157.798)"/>
    <path class="cls-1" d="M1631.791,618.369l-21.227,80.08c-2.545,9.6-12.37,17.248-21.817,17.248-9.6,0-15.369-7.648-12.824-17.248l21.228-80.08a3.642,3.642,0,0,1,3.037-2.4h4.8a1.824,1.824,0,0,1,1.764,2.4l-21.231,80.08c-1.112,4.2,1.424,7.648,5.774,7.648a10.7,10.7,0,0,0,9.671-7.648l21.231-80.08a3.46,3.46,0,0,1,3.037-2.4h4.8A1.824,1.824,0,0,1,1631.791,618.369Z" transform="translate(-28.808 -157.798)"/>
    <path class="cls-1" d="M1670.634,618.369l-1.272,4.8a3.294,3.294,0,0,1-3.031,2.4h-6.747L1636.327,713.3a3.3,3.3,0,0,1-3.04,2.4h-4.8a1.766,1.766,0,0,1-1.761-2.4l23.256-87.726h-6.75a1.769,1.769,0,0,1-1.764-2.4l1.273-4.8a3.462,3.462,0,0,1,3.036-2.4h23.1A1.821,1.821,0,0,1,1670.634,618.369Z" transform="translate(-28.808 -157.798)"/>
    <path class="cls-1" d="M1663.77,713.3a3.3,3.3,0,0,1-3.04,2.4h-4.794a1.767,1.767,0,0,1-1.764-2.4l25.124-94.776.038-.152a3.464,3.464,0,0,1,3.037-2.4h4.8a1.827,1.827,0,0,1,1.767,2.4Z" transform="translate(-28.808 -157.798)"/>
    <path class="cls-1" d="M1732.046,633.369l-17.252,65.08c-2.542,9.6-12.37,17.248-21.817,17.248-9.6,0-15.369-7.648-12.824-17.248l17.256-65.08c2.542-9.6,12.407-17.4,22.006-17.4C1728.861,615.969,1734.591,623.769,1732.046,633.369Zm-9.595,0c1.15-4.352-1.383-7.8-5.582-7.8a10.771,10.771,0,0,0-9.863,7.8l-17.255,65.08c-1.112,4.2,1.42,7.648,5.768,7.648a10.71,10.71,0,0,0,9.676-7.648Z" transform="translate(-28.808 -157.798)"/>
    <path class="cls-1" d="M1779.141,633.369l-21.19,79.928a3.3,3.3,0,0,1-3.036,2.4h-4.8a1.766,1.766,0,0,1-1.761-2.4l21.19-79.928c1.152-4.352-1.383-7.8-5.579-7.8a10.773,10.773,0,0,0-9.865,7.8l-21.19,79.928a3.3,3.3,0,0,1-3.04,2.4h-4.8a1.766,1.766,0,0,1-1.761-2.4l21.19-79.928c2.542-9.6,12.408-17.4,22.006-17.4C1775.956,615.969,1781.686,623.769,1779.141,633.369Z" transform="translate(-28.808 -157.798)"/>
    <path class="cls-1" d="M1813.671,638.315l1.354-5.1c1.112-4.2-1.424-7.648-5.623-7.648a10.712,10.712,0,0,0-9.677,7.648l-2.022,7.648c-.479,1.8-.479,1.8-.227,2.544l11.494,38.091c1.5,5.1,1.5,5.1.343,9.448l-1.987,7.5c-2.542,9.6-12.37,17.248-21.817,17.248s-15.217-7.648-12.672-17.248l1.351-5.1a3.459,3.459,0,0,1,3.034-2.4h4.8a1.826,1.826,0,0,1,1.764,2.4l-1.352,5.1c-1.153,4.347,1.38,7.8,5.582,7.8s8.559-3.453,9.711-7.8l1.988-7.5c.437-1.651.437-1.651.189-2.4l-11.5-38.089c-1.5-5.1-1.5-5.1-.3-9.595l2.025-7.648c2.5-9.451,12.368-17.25,21.817-17.25s15.179,7.8,12.672,17.25l-1.351,5.1a3.3,3.3,0,0,1-3.037,2.4h-4.8A1.769,1.769,0,0,1,1813.671,638.315Z" transform="translate(-28.808 -157.798)"/>
  </g>
  <g>
    <path class="cls-2" d="M988.756,319.184H855.783q-33.25,0-41.73,33.245L767.381,535.267q-8.49,33.244,24.756,33.245H925.11q33.241,0,41.728-33.245l46.673-182.838Q1021.993,319.188,988.756,319.184ZM921.221,518.648H821.489l38.184-149.6H959.4Z" transform="translate(-28.808 -157.798)"/>
    <path class="cls-2" d="M1475.977,418.916H1359.623l12.773-50.032h133.14l29.181-49.863H1368.506q-33.25,0-41.772,33.408l-21.215,83.11q-8.448,33.076,24.8,33.078h116.351l-12.726,49.861-167.519.158,42.427-166.207q8.481-33.241-24.759-33.245H1068.01q-33.249,0-41.728,33.245l-55.16,216.083h49.861L1071.9,369.051h66.653l-50.912,199.461H1137.5l50.914-199.461h66.153l-50.746,199.461h49.864l.041-.169h184.1q33.239,0,41.727-33.246l21.215-83.1Q1509.221,418.918,1475.977,418.916Z" transform="translate(-28.808 -157.798)"/>
  </g>
  <g>
    <polygon class="cls-1" points="1630.413 263.132 1587.482 370.463 1584.685 370.463 1541.754 263.132 1501.506 263.132 1560.537 410.713 1611.63 410.713 1670.664 263.132 1630.413 263.132"/>
    <polygon class="cls-1" points="1822.134 263.132 1779.202 370.463 1774.636 370.463 1731.704 263.132 1730.914 263.132 1693.224 263.132 1678.05 263.132 1619.016 410.713 1659.267 410.713 1702.198 303.38 1706.766 303.38 1749.696 410.713 1750.487 410.713 1788.177 410.713 1803.35 410.713 1862.384 263.132 1822.134 263.132"/>
  </g>
  <path class="cls-1" d="M269.511,544.112h79.124l50.35-87.449H270.247q-18.819,0-18.818-19.191,0-18.072,18.818-18.08H638.557c92.984-6.736,107.584-87.455,107.584-87.455H269.511q-44.647,0-75.272,30.076-30.642,30.071-30.631,75.458,0,46.127,30.631,76.382Q224.852,544.121,269.511,544.112Z" transform="translate(-28.808 -157.798)"/>
  <path class="cls-2" d="M96,571.818a297,297,0,0,1-7.61-66.994c0-163.609,132.633-296.243,296.247-296.243a295.742,295.742,0,0,1,234.252,114.9h61.663C619.515,224.1,509.823,157.8,384.634,157.8,192.972,157.8,37.6,313.167,37.6,504.824a348.985,348.985,0,0,0,6.482,66.994Z" transform="translate(-28.808 -157.798)"/>
  <path class="cls-1" d="M715.069,398.586a120.519,120.519,0,0,1-45.753,24.06,296.384,296.384,0,0,1,11.56,82.178c0,163.611-132.636,296.245-296.243,296.245A295.873,295.873,0,0,1,143.045,676.322c-27.125-.818-51.083-7.659-70.786-20.172,56.22,115.839,174.965,195.7,312.374,195.7,191.657,0,347.027-155.369,347.027-347.028A346.652,346.652,0,0,0,715.069,398.586Z" transform="translate(-28.808 -157.798)"/>
  <path class="cls-2" d="M594.23,486.735q-30.26-30.07-75.276-30.072h-90.8L377.8,544.112H518.218q18.82,0,18.821,18.082,0,18.066-18.821,18.079H28.808v1.292c2.614,11.4,23.325,85.925,118.827,86.43-.091.03-.173.057-.27.093h371.59q45.006,0,75.276-30.251,30.253-30.261,30.256-75.644Q624.486,516.795,594.23,486.735Z" transform="translate(-28.808 -157.798)"/>
  <circle class="cls-2" cx="1505.866" cy="399.5" r="19.832"/>
</svg>
